/* XPM */
static const char * auto_xpm[] = {
"21 20 11 1",
" 	g None",
".	g None",
"+	g #787878",
"@	g #030303",
"#	g #8A8A8A",
"$	g #3C3C3C",
"%	g #646464",
"&	g #151515",
"*	g #515151",
"=	g #292929",
"-	g #9D9D9D",
".....................",
".....................",
".....................",
".....................",
".....................",
".....................",
"..+@.........##......",
"..$%+........++......",
"..$.$..$+.+++@@..&@*.",
".++.$+.$+.++.++.=+.$-",
".$$$=$.$+.++.++.@..++",
"#$+++$.$+.++.++.@..++",
"*%...%##*.&+.++.$*.&.",
"%#...##.%$+#.-$..*$+.",
".....................",
".....................",
".....................",
".....................",
".....................",
"....................."};
