/* XPM */
const char * qbrewIcon[] = {
"48 48 129 2",
"  	c None",
". 	c #000000",
"+ 	c #2F370B",
"@ 	c #777B27",
"# 	c #8F9F55",
"$ 	c #404C10",
"% 	c #26300E",
"& 	c #324B2D",
"* 	c #263722",
"= 	c #505A28",
"- 	c #979A46",
"; 	c #6F792E",
"> 	c #4F6032",
", 	c #294013",
"' 	c #25370E",
") 	c #060E02",
"! 	c #18210B",
"~ 	c #5A6136",
"{ 	c #A8A26E",
"] 	c #889159",
"^ 	c #828534",
"/ 	c #6F753F",
"( 	c #424C21",
"_ 	c #A9AD55",
": 	c #9DA75C",
"< 	c #5F6217",
"[ 	c #4D560C",
"} 	c #858A32",
"| 	c #98A14D",
"1 	c #6A6E16",
"2 	c #D2D48C",
"3 	c #C6CE72",
"4 	c #1A260D",
"5 	c #23290D",
"6 	c #3A4420",
"7 	c #6A6E2E",
"8 	c #ADAD71",
"9 	c #AFB671",
"0 	c #B7B67A",
"a 	c #50542E",
"b 	c #96965E",
"c 	c #39440D",
"d 	c #E3DEBB",
"e 	c #EEE6B2",
"f 	c #5F6932",
"g 	c #526018",
"h 	c #637325",
"i 	c #616E20",
"j 	c #445429",
"k 	c #32391D",
"l 	c #5F681F",
"m 	c #AAB260",
"n 	c #374B0E",
"o 	c #ADBC71",
"p 	c #9CAB6E",
"q 	c #82834B",
"r 	c #DFDF95",
"s 	c #BDBF6D",
"t 	c #C7C77D",
"u 	c #C1C284",
"v 	c #A4AD6E",
"w 	c #626E3C",
"x 	c #79842C",
"y 	c #C0C87D",
"z 	c #DCD89D",
"A 	c #B1BC89",
"B 	c #D0CD86",
"C 	c #DED5AB",
"D 	c #E3DAAF",
"E 	c #D2CE96",
"F 	c #B4BC71",
"G 	c #8D9543",
"H 	c #717D3B",
"I 	c #E1DEB5",
"J 	c #EDE3D0",
"K 	c #D0C99B",
"L 	c #121A0A",
"M 	c #909A44",
"N 	c #7A8A46",
"O 	c #EDECD0",
"P 	c #C7C695",
"Q 	c #BFCC98",
"R 	c #BFBD94",
"S 	c #C5CDA8",
"T 	c #6A764E",
"U 	c #D5D1AA",
"V 	c #828A45",
"W 	c #D3D3A0",
"X 	c #9FA15E",
"Y 	c #B5C375",
"Z 	c #D8D7B1",
"` 	c #E5E2D5",
" .	c #828F44",
"..	c #4E5A1E",
"+.	c #BDC39B",
"@.	c #42540F",
"#.	c #77843B",
"$.	c #BEBD7E",
"%.	c #31400E",
"&.	c #B5C78A",
"*.	c #86964E",
"=.	c #586920",
"-.	c #6D7E2E",
";.	c #6D8732",
">.	c #A7BE8B",
",.	c #647638",
"'.	c #879659",
").	c #919C68",
"!.	c #CFCFBF",
"~.	c #C2D29A",
"{.	c #A4B56F",
"].	c #9AA63A",
"^.	c #D6D6CB",
"/.	c #ADB581",
"(.	c #C9CB97",
"_.	c #A3B385",
":.	c #C6D2A4",
"<.	c #718543",
"[.	c #9DB474",
"}.	c #92AA62",
"|.	c #8AA24E",
"1.	c #798E3F",
"2.	c #879A4C",
"3.	c #9EB05C",
"4.	c #2E4612",
"5.	c #90A854",
"6.	c #789256",
"7.	c #869A6E",
"8.	c #8EA263",
". . . . . . . . . . . . . . . . . . . . . . . . . . . . . . . . . . . . . . . . . . . . . . . . ",
". . . . . . . . . . . . . . . . . . . . . . . . . . . . . + @ # $ $ % & * . . . . . . . . . . . ",
". . . . . . . . . . . . . . . . . . . . . . . . . . . . = @ - ; > > , ' . . . . . . . . . . . . ",
". . . . . . . . . . . . . . . . ) ! ~ { ] ] ^ / ( ! = = - _ @ : > > > * . . . . . . . . . . . . ",
". . . . . . . . . . . . . . . . ) ! ~ { ] ] ^ / ( ! = = - _ @ : > > > * . . . . . . . . . . . . ",
". . . . . . . . . . . . . . . . ! ~ { < [ [ } | 1 @ } } 2 3 < 4 & & & & ! ) . . . . . . . . . . ",
". . . . . . . . . . . . . . . . . . 5 6 7 7 - | 8 9 0 0 8 | @ + ' ' & * * . . . . . . . . . . . ",
". . . . . . . . . . . . . . ) ) . . a 8 b b $ c 8 d e e 8 f g h i i f j 4 . . . . . . . . . . . ",
". . . . . . . . . . . . . . . . k l } < $ $ [ @ m 2 ^ ^ $ + + ! n n o p n . ) ) . . . . . . . . ",
". . . . . . . . . . . . . % q q r 1 < s s s 3 2 r 7 c c 1 t u 0 v v 0 | { w . . . . . . . . . . ",
". . . . . . . . . . . . . % q q r 1 < s s s 3 2 r 7 c c 1 t u 0 v v 0 | { w . . . . . . . . . . ",
". . . . . . . . ) ) . . 6 b m m x ^ y s t t t z A c + + - B C D B B E 8 5 = k k . . . . . . . . ",
". . . . . . . . . . ! / F _ @ @ _ B s 3 t t z 9 G < [ [ H I D J D D E K q L % % . . . . . . . . ",
". . . . . . . . ! ! l 9 | < 0 0 E 0 s s E E B F m M : : G N 2 O O O E 2 P 5 . . ) . . . . . . . ",
". . . . . . . . a a Q # $ ^ z z D u s _ E E P C R F F F I S q K J J C B E a . . . . . . . . . . ",
". . . . . . . . T T o $ c _ C C J U } } @ @ u U R : F F u 9 9 V o o W C K b ) ) ) . . . . . . . ",
". . . . . . . . T T o $ c _ C C J U } } @ @ u U R : F F u 9 9 V o o W C K b ) ) ) . . . . . . . ",
". . . . . . . . 6 6 f c 1 _ P P K U D z r r X E u Y y y F y m o o o w : u F k k . . . . . . . . ",
". . . . . . . ) . . . c x F B B t Z J ` K K 8 U 9 A K K t t y  .j j % + g @ ..... . . . . . . . ",
". . . . . . . . . . ! g 9 t E E U U D K D D +.O +.$ g g H x g @.[ [  .+ % % #.#.) . . . . . . . ",
". . . . . . . . . . . } : s B B E K $.C E E C O y n , , + %.g 3 F F &.*.c % =.=.5 . . . . . . . ",
". . . . . . . . . . ~ X G m s s | X 2 2 0 0 e 2 p # g g ' + o W P P y $. .-.*.*.%.. . . . . . . ",
". . . . . . . . . . ~ X G m s s | X 2 2 0 0 e 2 p # g g ' + o W P P y $. .-.*.*.%.. . . . . . . ",
". . . . . . . . 5 5 b G @ } ;.;.h Y y $.u u z A R Q >.>.>.,.'.$.R R $.B $.@ #.#.5 . . . . . . . ",
". . . . . . . . $ $ ^ G 1 n @.@.} 9 $.p u u U ).I !.&.&.Q ~.*.{.E E $.0 K ; n n 4 . . . . . . . ",
". . . . . . . . a a 1 ^ P !.O O ` ).{.]._ _ G A S S ^.^.S Z v V v v : 8 /./ 5 5 . . . . . . . . ",
". . . . . . . . ....@.i Z ^.` ` J '.} ;.-.-.H (.Q _.S S R :.).g @ @  .G ] 6 . . ) . . . . . . . ",
". . . . . . . . % % 5 1 (.!.^.^.Z _.=.@.%.%.<.&.o _.S S A p  .n @.@.h N @.. . . . . . . . . . . ",
". . . . . . . . % % 5 1 (.!.^.^.Z _.=.@.%.%.<.&.o _.S S A p  .n @.@.h N @.. . . . . . . . . . . ",
". . . . . . . . . . b ] P Z !.!.Q S ~.[.>.>.[.}.|.[.>.>.{.1.,.c ' ' > > ' % . . . . . . . . . . ",
". . . . . . . . ! ! v H { R P P A Q A _.>.>.2.1. .|.|.|.-.> n 1., , % 4 > ' . . . . . . . . . . ",
". . . . . . . . ! ! ).h <.9 A A 3.9 X +.&.&.,.=.h h =.=., ' ,.[.'.'.4.4.j 5 . . . . . . . . . . ",
". . . . . . . . 5 5 <.; =.|.5.5.-  .: 0 &.&.<.4.4.4.L L @.6.[.p |.|.7.j ( . . . . . . . . . . . ",
". . . . . . . . 4 4 #.h @.=. . .#.| : >.[.[.>.w L L w w <.).X # 2.2.6.> . . . . . . . . . . . . ",
". . . . . . . . 4 4 #.h @.=. . .#.| : >.[.[.>.w L L w w <.).X # 2.2.6.> . . . . . . . . . . . . ",
". . . . . . . . . . w ..=., @.@. .{.{.v 2.2.}.8.4.n =.=.x 2. .V H H A & . . . . . . . . . . . . ",
". . . . . . . . . . % c =.n -.-.Y 3.v }.5.5.|.;.h $ =.=.-.; #.h q q T . . . . . . . . . . . . . ",
". . . . . . . . . . . . $ <.-.-.}.2.).8.}.}.2.-.-.n n n @.i =.$ ).).! . . . . . . . . . . . . . ",
". . . . . . . . . . . . ~ p <.<.#.-.-.; 1.1.-.h =.' % % c n %.j j j . . . . . . . . . . . . . . ",
". . . . . . . . . . . . = 6.<.<.%.@.4.=.h h g =.' 4 . . . . . ' . . . . . . . . . . . . . . . . ",
". . . . . . . . . . . . = 6.<.<.%.@.4.=.h h g =.' 4 . . . . . ' . . . . . . . . . . . . . . . . ",
". . . . . . . . . . . . k f f f % L %.@.n n , ' @.( . . . . . . . . . . . . . . . . . . . . . . ",
". . . . . . . . . . . . ! % ' ' ! L % + % % 4 n ..> ! ! . . . . . . . . . . . . . . . . . . . . ",
". . . . . . . . . . . . . ! * * / ( n 5 . . ! . %.% . . . . . . . . . . . . . . . . . . . . . . ",
". . . . . . . . . . . . . 5 + + / #.%.% . . . . ! + ! ! . . . . . . . . . . . . . . . . . . . . ",
". . . . . . . . . . . . . . 5 5 j = % . . . . . . . . . . . . . . . . . . . . . . . . . . . . . ",
". . . . . . . . . . . . . . 5 5 j = % . . . . . . . . . . . . . . . . . . . . . . . . . . . . . ",
". . . . . . . . . . . . . . . . . . . . . . . . . . . . . . . . . . . . . . . . . . . . . . . . "};
