/* XPM */
static const char *chi[] = {
/* width height num_colors chars_per_pixel */
"    20    16        2            1",
/* colors */
". c None",
"# c #000000",
/* pixels */
"....................",
"....................",
"....................",
"....................",
"....##.......#......",
"..#####.....#.......",
"..######...##.......",
"..##.###..##........",
"..##..#####.........",
".......###..........",
"......####..........",
".....##.###.........",
"....##...###........",
"...##......##.......",
"...#........##......",
"...................."
};
