/* XPM */
static const char *dollyInRed_xpm[] = {
/* width height num_colors chars_per_pixel */
"    16    16        3            1",
/* colors */
". c #ff0000",
"f c #ffffff",
"# c #000000",
/* pixels */
".......#######..",
"......#fffffff#.",
".....#ffff#ffff#",
".....#ffff#ffff#",
".....#ffff#ffff#",
".....#f#######f#",
".....#ffff#ffff#",
".....#ffff#ffff#",
".....#ffff#ffff#",
".....##fffffff#.",
"....##########..",
"...###..........",
"..###...........",
".###............",
"###.............",
"##.............."
};
