/* XPM */
static const char *dollyOut_xpm[] = {
/* width height num_colors chars_per_pixel */
"    16    16        3            1",
/* colors */
". c None",
"f c #ffffff",
"# c #000000",
/* pixels */
".......#######..",
"......#fffffff#.",
".....#fffffffff#",
".....#fffffffff#",
".....#fffffffff#",
".....#f#######f#",
".....#fffffffff#",
".....#fffffffff#",
".....#fffffffff#",
".....##fffffff#.",
"....##########..",
"...###..........",
"..###...........",
".###............",
"###.............",
"##.............."
};
