/* XPM */
static const char * downRed_xpm[] = {
"20 16 4 1",
" 	c #ff0000",
".	c #000000",
"+	c #FFFFFF",
"@	c #aaff00",
"          .         ",
"           .        ",
"           .        ",
"            .       ",
"            .       ",
"+++++++++++ . ++++++",
"@@@@@@@@@@@ . @@@@@@",
"+++++++++++ . ++++++",
"            .       ",
"            .       ",
"    .      .  .     ",
"     .     . .      ",
"      .   . .       ",
"       . . .        ",
"        ...         ",
"         .          "};
