/* XPM */
static const char *eulerAngle[] = {
/* columns rows colors chars-per-pixel */
"46 17 2 1",
"  c #000000",
". c #ffffff",
/* pixels */
"..............................................",
"..............................................",
"..............................................",
"..............................................",
"........   .........    ......................",
".... ..  .  ....... .... .....................",
".... .. .... ..... ...... .......  .....  ....",
".... .. .... ....  ......  .....    ... ......",
".... .. ...  ....  .....   .....    ..  ......",
"..... . ..  .....          ..... ..   ........",
".....      ......   .....  ........  .........",
"....... .........  ...... .........   ........",
"....... .......... ...... .......  ..  .......",
"....... ........... .... ........ ....  ......",
"....................    ............... ......",
"..............................................",
".............................................." 
};


