/* XPM */
static const char *fovyPix[] = {
"16 16 3 1",
" 	c None",
".	c #000000",
"+	c #FFFFFF",
"++++++++++++++++",
"++++++++++++++++",
"++++++++++++++++",
"++++++++++++++++",
"++++++....++++++",
"++++++.+++++++++",
"+++++....+++++++",
"++++++.+++++++++",
"++++++.+++++++++",
"++++++.+++++++++",
"++++++.+++++++++",
"+++++....+++++++",
"++++++++++++++++",
"++++++++++++++++",
"++++++++++++++++",
"++++++++++++++++"};
