/* XPM */
static const char * homenew_xpm[] = {
"20 16 3 1",
" 	c None",
".	c #EF1C4A",
"+	c #3F44E2",
"...      +++        ",
"  ...   ++ ++       ",
"     ..++   ++      ",
"      ..     ++     ",
"     ++.. ..  ++    ",
"    ++  ....   ++   ",
"   +++.....    +++  ",
"  ++++ ....    ++++ ",
"    ++ ++..    ++   ",
"    ++         ++   ",
"    ++     +++ ++   ",
"    ++     + + ++   ",
"    ++     + + ++   ",
"    ++     + + ++   ",
"    ++     + + ++   ",
"   ++++++++++++++   "};
