/* XPM */
static const char * home_xpm[] = {
"20 16 2 1",
" 	c None",
".	c #3F44E2",
"         ...        ",
"        .. ..       ",
"       ..   ..      ",
"      ..     ..     ",
"     ..       ..    ",
"    ..         ..   ",
"   ... ....    ...  ",
"  .... .  .    .... ",
"    .. ....    ..   ",
"    ..         ..   ",
"    ..     ... ..   ",
"    ..     . . ..   ",
"    ..     . . ..   ",
"    ..     . . ..   ",
"    ..     . . ..   ",
"   ..............   "};
