/* XPM */
static const char * leftRed_xpm[] = {
"20 20 4 1",
" 	c #FF0000",
".	c #C4FF4E",
"+	c #F7FFE8",
"@	c #000000",
"            .+      ",
"            .+      ",
"            .+      ",
"            .+      ",
"    @       .+      ",
"   @        .+      ",
"  @         .+      ",
"            .+      ",
" @          .+      ",
"@@          .+      ",
" @@         .+     @",
"   @@       .+    @ ",
"  @  @@        @@@  ",
"   @   @@@@@@@@     ",
"    @               ",
"            .+      ",
"            .+      ",
"            .+      ",
"            .+      ",
"            .+      "};
