/* XPM */
static const char *mycenterBottomDir[] = {
/* width height num_colors chars_per_pixel */
"    34    16        3            1",
/* colors */
". c #c3c3c3",
"f c #ffffff",
"# c #000000",
/* pixels */
"................#######...........",
"...............#fffffff#..........",
"..............#fffffffff#.........",
"..............#fffffffff#.........",
"..............#fffffffff#.........",
"..............#f#######f#.........",
"..............#fffffffff#.........",
"..............#fffffffff#.........",
"..............#fffffffff#.........",
"..............##fffffff#..........",
".............##########...........",
"............###...................",
"...........###....................",
"..........###.....................",
".........###......................",
".........##......................."
};
