/* XPM */
static const char *myrightArrow[] = {
/* width height num_colors chars_per_pixel */
"     7    12        2            1",
/* colors */
". c #000000",
"# c #c3c3c3",
/* pixels */
"#######",
"#.#####",
"#..####",
"#...###",
"#....##",
"#.....#",
"#......",
"#.....#",
"#....##",
"#...###",
"#..####",
"#.#####"
};
