/* XPM */
static const char *myrightDir[] = {
/* width height num_colors chars_per_pixel */
"    20    38        2            1",
/* colors */
". c #c3c3c3",
"# c #000000",
/* pixels */
"##..................",
".##.................",
"..##................",
"...##...............",
"....##..............",
".....##.............",
"......##............",
".......##...........",
"........##..........",
".........##.........",
"..........##........",
"...........##.......",
"............##......",
".............##.....",
"..............##....",
"...............##...",
"................##..",
".................##.",
"..................##",
"..................##",
".................##.",
"................##..",
"...............##...",
"..............##....",
".............##.....",
"............##......",
"...........##.......",
"..........##........",
".........##.........",
"........##..........",
".......##...........",
"......##............",
".....##.............",
"....##..............",
"...##...............",
"..##................",
".##.................",
"##.................."
};
