/* XPM */
static const char *myupDir[] = {
/* width height num_colors chars_per_pixel */
"    38    20        2            1",
/* colors */
". c #c3c3c3",
"# c #000000",
/* pixels */
"..................##..................",
".................####.................",
"................##..##................",
"...............##....##...............",
"..............##......##..............",
".............##........##.............",
"............##..........##............",
"...........##............##...........",
"..........##..............##..........",
".........##................##.........",
"........##..................##........",
".......##....................##.......",
"......##......................##......",
".....##........................##.....",
"....##..........................##....",
"...##............................##...",
"..##..............................##..",
".##................................##.",
"##..................................##",
"#....................................#"
};
