/* XPM */
static const char * parallel_xpm[] = {
"20 16 2 1",
" 	c None",
".	c #FF0000",
"                    ",
"                    ",
"        .........   ",
"       ..      ..   ",
"      . .     . .   ",
"     .       .  .   ",
"    .........   .   ",
"    .       .   .   ",
"    .   ... . ...   ",
"    .  .    .  .    ",
"    . .     . .     ",
"    ..      ..      ",
"    .........       ",
"                    ",
"                    ",
"                    "};
