/* XPM */
static const char * perspective_xpm[] = {
"20 16 2 1",
" 	c None",
".	c #FF0000",
"                    ",
"                    ",
"                    ",
"                    ",
"       .........    ",
"      .        .    ",
"    ............    ",
"    .       .  .    ",
"    .   ... ....    ",
"    .  .    . .     ",
"    . .     . .     ",
"    ..      ..      ",
"    .........       ",
"                    ",
"                    ",
"                    "};
