/* XPM */
static const char * stereoVisionEn_xpm[] = {
"20 16 4 1",
" 	c None",
".	c #EF1C4A",
"+	c #3F44E2",
"#	c #000000",
"                    ",
"                    ",
"   #            #   ",
"  #              #  ",
" #                # ",
"#                  #",
"#                  #",
"# ######    #####  #",
"###++++######....###",
"##+++++++##.......##",
" #+++++++##.......# ",
" ##++++++##......## ",
"  ###++######..###  ",
"    ####    ####    ",
"                    ",
"                    "};
