/* XPM */
static const char *thinLine[] = {
/* width height num_colors chars_per_pixel */
"     8     16        2            1",
/* colors */
". c #000000",
"# c #ffffff",
/* pixels */
"###..###",
"###..###",
"###..###",
"###..###",
"###..###",
"###..###",
"###..###",
"###..###",
"###..###",
"###..###",
"###..###",
"###..###",
"###..###",
"###..###",
"###..###",
"###..###"
};
