/* XPM */
static const char * upRed_xpm[] = {
"20 16 4 1",
" 	c #FF0000",
".	c #000000",
"x	c #FFFFFF",
"g	c #aaff00",
"          .         ",
"         ...        ",
"        . . .       ",
"       . .   .      ",
"      . .     .     ",
"     .  .      .    ",
"       .            ",
"       .            ",
"xxxxxx . xxxxxxxxxxx",
"gggggg . ggggggggggg", 
"xxxxxx . xxxxxxxxxxx",
"       .            ",
"       .            ",
"        .           ",
"        .           ",
"         .          "};
