/* XPM */
static const char * whiteBackground_xpm[] = {
"20 16 4 1",
" 	c None",
".	c #FFFFFF",
"+	c #FF0021",
"@	c #FF0000",
"....................",
"....................",
"....................",
"..++++++++++++@++...",
"..++...........++...",
"..+.+++++++++++.+...",
"..+.+.........+.+...",
"..+.+.........+.+...",
"..+.+.........+.+...",
"..+.+.........+.+...",
"..+.+++++++++++.+...",
"..++...........++...",
"..+++++++++++++++...",
"....................",
"....................",
"...................."};
