#define chi_width 20
#define chi_height 16
static unsigned char chi_bits[] = {
   0x00, 0x00, 0x00, 0x00, 0x00, 0x00, 0x00, 0x00, 0x00, 0x00, 0x00, 0x00,
   0x30, 0x20, 0x00, 0x7c, 0x10, 0x00, 0xfc, 0x18, 0x00, 0xec, 0x0c, 0x00,
   0xcc, 0x07, 0x00, 0x80, 0x03, 0x00, 0xc0, 0x03, 0x00, 0x60, 0x07, 0x00,
   0x30, 0x0e, 0x00, 0x18, 0x18, 0x00, 0x08, 0x30, 0x00, 0x00, 0x00, 0x00};
