#define dolly_width 20
#define dolly_height 16
static unsigned char dolly_bits[] = {
   0x00, 0x00, 0x00, 0x80, 0x00, 0x00, 0xc0, 0x01, 0x00, 0xe0, 0x03, 0x00,
   0xf0, 0x07, 0x00, 0xf8, 0x0f, 0x00, 0xfc, 0x1f, 0x00, 0x0a, 0x28, 0x00,
   0x68, 0x08, 0x00, 0x68, 0x0b, 0x00, 0x68, 0x0b, 0x00, 0x08, 0x0b, 0x00,
   0x08, 0x0b, 0x00, 0x08, 0x0b, 0x00, 0xfc, 0x7f, 0x00, 0x00, 0x00, 0x00};
