#define fovyPix_width 16
#define fovyPix_height 16
static unsigned char fovyPix_bits[] = {
   0x00, 0x00, 0x30, 0x00, 0xc0, 0x00, 0x80, 0x3f, 0x60, 0x01, 0x30, 0x02,
   0x10, 0x1e, 0x3e, 0x3e, 0xd1, 0x3f, 0x18, 0x37, 0x08, 0x37, 0x8c, 0x1f,
   0xe5, 0x08, 0xa3, 0xd8, 0xe0, 0xe0, 0x00, 0x00};
