#define hand2_width 32
#define hand2_height 32
static unsigned char hand2_bits[] = {
   0x00, 0x00, 0x00, 0x00, 0x00, 0x80, 0x01, 0x00, 0x00, 0x4c, 0x12, 0x00,
   0x00, 0x4a, 0x2a, 0x00, 0x00, 0x4a, 0x2a, 0x00, 0x00, 0x52, 0xaa, 0x01,
   0x00, 0x52, 0xa6, 0x02, 0x00, 0x52, 0xa6, 0x02, 0x00, 0x72, 0xa6, 0x02,
   0x00, 0x62, 0xa6, 0x02, 0x00, 0x62, 0x52, 0x02, 0x00, 0x62, 0x52, 0x03,
   0x00, 0x62, 0x12, 0x01, 0x00, 0x26, 0x13, 0x01, 0x00, 0x24, 0x13, 0x01,
   0x38, 0x24, 0x93, 0x01, 0xc8, 0x04, 0x81, 0x01, 0x10, 0x05, 0x80, 0x01,
   0x10, 0x03, 0x00, 0x01, 0x20, 0x06, 0x00, 0x01, 0x20, 0x02, 0x00, 0x01,
   0x20, 0x00, 0x80, 0x01, 0x60, 0x00, 0x80, 0x00, 0xc0, 0x00, 0x80, 0x00,
   0x80, 0x00, 0x80, 0x00, 0x00, 0x03, 0x80, 0x00, 0x00, 0x02, 0xc0, 0x00,
   0x00, 0x02, 0x40, 0x00, 0x00, 0x04, 0x30, 0x00, 0x00, 0x04, 0x10, 0x00,
   0x00, 0x04, 0x10, 0x00, 0x00, 0x00, 0x00, 0x00};
