#define hand_width 32
#define hand_height 32
static unsigned char hand_bits[] = {
   0x00, 0x00, 0x00, 0x00, 0x00, 0x30, 0x00, 0x00, 0x00, 0xc8, 0x01, 0x00,
   0x00, 0x48, 0x1e, 0x00, 0x00, 0x48, 0x36, 0x00, 0x00, 0x4c, 0xf2, 0x00,
   0x00, 0x44, 0x92, 0x00, 0x00, 0x44, 0x92, 0x00, 0x00, 0x44, 0x92, 0x00,
   0x00, 0x44, 0x92, 0x00, 0x00, 0x44, 0x92, 0x00, 0x00, 0x64, 0x92, 0x00,
   0x00, 0x64, 0x92, 0x00, 0x00, 0x64, 0x92, 0x00, 0x00, 0x24, 0x93, 0x00,
   0x40, 0x24, 0x93, 0x00, 0xa0, 0x24, 0x93, 0x00, 0xa0, 0x04, 0x81, 0x01,
   0x20, 0x05, 0x80, 0x01, 0x20, 0x03, 0x00, 0x01, 0x20, 0x06, 0x00, 0x01,
   0x20, 0x02, 0x00, 0x01, 0x20, 0x00, 0x80, 0x01, 0x60, 0x00, 0x80, 0x00,
   0xc0, 0x00, 0x80, 0x00, 0x80, 0x00, 0x80, 0x00, 0x00, 0x03, 0x80, 0x00,
   0x00, 0x02, 0xc0, 0x00, 0x00, 0x02, 0x40, 0x00, 0x00, 0x04, 0x30, 0x00,
   0x00, 0x04, 0x10, 0x00, 0x00, 0x04, 0x10, 0x00};
