#define theta_width 20
#define theta_height 16
static char theta_bits[] = {
 0x00,0x00,0x00,0xe0,0x07,0x00,0x10,0x08,0x00,0x08,0x10,0x00,0x0c,0x30,0x00,
 0x0c,0x30,0x00,0x0c,0x30,0x00,0xfc,0x3f,0x00,0xfc,0x3f,0x00,0x0c,0x30,0x00,
 0x0c,0x30,0x00,0x0c,0x30,0x00,0x08,0x10,0x00,0x10,0x08,0x00,0xe0,0x07,0x00,
 0x00,0x00,0x00};
